<?xml version="1.0" encoding="UTF-8"?>
<!DOCTYPE svg PUBLIC "-//W3C//DTD SVG 1.1//EN" "http://www.w3.org/Graphics/SVG/1.1/DTD/svg11.dtd">
<!-- Creator: CorelDRAW X7 -->
<svg xmlns="http://www.w3.org/2000/svg" xml:space="preserve" width="512px" height="512px" version="1.1" style="shape-rendering:geometricPrecision; text-rendering:geometricPrecision; image-rendering:optimizeQuality; fill-rule:evenodd; clip-rule:evenodd"
viewBox="0 0 512 512"
 xmlns:xlink="http://www.w3.org/1999/xlink">
 <defs>
  <style type="text/css">
   <![CDATA[
    .fil0 {fill:#FEFEFE}
    .fil1 {fill:black}
   ]]>
  </style>
 </defs>
 <g id="Layer_x0020_1">
  <metadata id="CorelCorpID_0Corel-Layer"/>
  <rect class="fil0" width="512" height="512" rx="30" ry="30"/>
  <path class="fil1" d="M73 337c1,6 7,10 13,8l147 -39c6,-2 9,-8 8,-14l-34 -126c-2,-6 -8,-9 -13,-8l-53 15 17 63 -42 11 -17 -63 -52 14c-6,1 -10,7 -8,13l34 126zm227 -255c-13,0 -22,10 -22,22l0 220 -235 64c-3,1 -5,4 -4,7l8 31c1,3 4,5 7,4l268 -73c1,40 34,73 75,73 42,0 77,-34 77,-76l0 -272 -174 0zm97 305c-18,0 -32,-15 -32,-33 0,-18 14,-33 32,-33 18,0 33,15 33,33 0,18 -15,33 -33,33z"/>
 </g>
</svg>
